<svg width="26" height="23" viewBox="0 0 26 23" fill="none" xmlns="http://www.w3.org/2000/svg">
<g clip-path="url(#clip0_138_574)">
<path d="M12.5068 0.0950909C12.2716 0.183792 12.0578 0.468899 12.0578 0.696985C12.0578 0.931408 12.1932 1.0898 13.1127 1.91345L14.0179 2.72442H9.42053C4.45252 2.72442 4.37411 2.73076 3.56156 3.07289C2.83453 3.377 2.10038 4.04226 1.7725 4.6885C1.4375 5.36009 1.4375 5.25872 1.4375 11.4994C1.4375 16.5934 1.45176 17.4487 1.54442 17.7718C1.96495 19.1847 3.49741 20.2744 5.07976 20.2744C5.55019 20.2744 5.79965 20.135 5.92795 19.8056C5.9921 19.6345 5.98497 19.5395 5.89944 19.3684C5.77114 19.096 5.5288 18.9756 4.97284 18.9186C4.17454 18.8425 3.50453 18.4117 3.13389 17.7401L2.96996 17.455V11.5628C2.96996 5.91763 2.97708 5.65787 3.10538 5.36009C3.36198 4.75819 4.03911 4.25767 4.77327 4.12462C5.02273 4.08027 6.6336 4.05493 9.57734 4.05493H14.0036L13.0699 4.89758C12.5425 5.3791 12.1148 5.81626 12.0934 5.9113C11.9366 6.44984 12.5496 6.93135 13.1198 6.72227C13.3764 6.6209 16.5126 3.82051 16.5839 3.6241C16.7122 3.25029 16.6053 3.12357 14.8946 1.603C13.4548 0.329514 13.0129 -0.0062809 12.7848 5.53131e-05C12.7563 0.00639153 12.6351 0.044405 12.5068 0.0950909Z" fill="white"/>
<mask id="path-2-inside-1_138_574" fill="white">
<path d="M20.0265 2.82583C19.6345 3.05392 19.5561 3.57344 19.8839 3.85855C20.0407 3.99794 20.169 4.04229 20.5326 4.07397C21.452 4.16267 22.2432 4.66953 22.5354 5.36012C22.678 5.70859 22.678 5.77195 22.6637 11.6135L22.6424 17.5184L22.4784 17.7908C22.2289 18.209 21.8512 18.5448 21.4093 18.7349L21.003 18.9123L16.2987 18.9313L11.5944 18.9503L12.578 18.0696C13.5118 17.2333 13.5545 17.1763 13.5545 16.9355C13.5545 16.4477 13.0271 16.1182 12.5424 16.3019C12.4141 16.359 11.6087 17.0242 10.6963 17.8415C9.00706 19.3558 8.87876 19.5142 9.06408 19.8436C9.11397 19.926 9.89089 20.6546 10.7961 21.4656C12.5638 23.0368 12.6707 23.1065 13.134 22.9355C13.3906 22.8404 13.5545 22.5807 13.5545 22.2639C13.5545 22.0421 13.4833 21.9598 12.578 21.1488L11.6015 20.2744H16.2702C20.1762 20.2744 21.003 20.2618 21.3451 20.1794C22.6281 19.8816 23.6616 19.0136 24.0536 17.8985L24.2104 17.455V11.5311C24.2104 5.10669 24.2247 5.35379 23.8113 4.5935C23.2411 3.55444 22.0365 2.8385 20.725 2.7498C20.3187 2.72446 20.1833 2.74346 20.0265 2.82583Z"/>
</mask>
<path d="M20.0265 2.82583L17.0091 -2.36026L17.1214 -2.4256L17.2364 -2.48601L20.0265 2.82583ZM19.8839 3.85855L23.821 -0.669081L23.8457 -0.647625L23.8701 -0.625902L19.8839 3.85855ZM20.5326 4.07397L21.0535 -1.90338L21.0811 -1.90097L21.1087 -1.89831L20.5326 4.07397ZM22.5354 5.36012L28.0611 3.02187L28.0751 3.05501L28.0887 3.08833L22.5354 5.36012ZM22.6637 11.6135L28.6637 11.6281L28.6637 11.6352L22.6637 11.6135ZM22.6424 17.5184L28.6423 17.5401L28.6363 19.1945L27.7833 20.612L22.6424 17.5184ZM22.4784 17.7908L17.3257 14.7168L17.3316 14.707L17.3374 14.6973L22.4784 17.7908ZM21.4093 18.7349L19.0083 13.2362L19.0234 13.2296L19.0386 13.2231L21.4093 18.7349ZM21.003 18.9123L23.404 24.4109L22.2674 24.9072L21.0272 24.9122L21.003 18.9123ZM11.5944 18.9503L11.6187 24.9502L-4.1732 25.014L7.59217 14.4801L11.5944 18.9503ZM12.578 18.0696L16.5811 22.539L16.5803 22.5397L12.578 18.0696ZM12.5424 16.3019L10.1056 10.8191L10.2588 10.751L10.4156 10.6915L12.5424 16.3019ZM10.6963 17.8415L6.69145 13.3737L6.69283 13.3725L10.6963 17.8415ZM9.06408 19.8436L3.93223 22.9523L3.88208 22.8695L3.83462 22.7852L9.06408 19.8436ZM10.7961 21.4656L6.80993 25.95L6.80119 25.9423L6.79248 25.9345L10.7961 21.4656ZM13.134 22.9355L15.2179 28.562L15.2122 28.564L13.134 22.9355ZM12.578 21.1488L16.5804 16.6788L16.5817 16.6799L12.578 21.1488ZM11.6015 20.2744L7.59918 24.7445L-4.09424 14.2744H11.6015V20.2744ZM21.3451 20.1794L19.9408 14.3461L19.9647 14.3403L19.9886 14.3348L21.3451 20.1794ZM24.0536 17.8985L18.3932 15.9086L18.3968 15.8985L24.0536 17.8985ZM24.2104 17.455H30.2104V18.4845L29.8673 19.4551L24.2104 17.455ZM23.8113 4.5935L29.0713 1.70691L29.0769 1.7171L29.0824 1.72731L23.8113 4.5935ZM20.725 2.7498L21.0985 -3.23856L21.1142 -3.23759L21.1299 -3.23652L20.725 2.7498ZM23.0438 8.01192C25.6381 6.50255 27.0746 2.16015 23.821 -0.669081L15.9469 8.38619C12.0375 4.98674 13.6308 -0.394718 17.0091 -2.36026L23.0438 8.01192ZM23.8701 -0.625902C23.7239 -0.755905 23.4722 -0.963808 23.125 -1.17561C22.7632 -1.39628 22.3931 -1.56341 22.0333 -1.68371C21.42 -1.88875 20.9478 -1.91258 21.0535 -1.90338L20.0117 10.0513C19.7538 10.0288 19.0356 9.967 18.2281 9.69701C17.1934 9.35103 16.4332 8.81892 15.8977 8.34301L23.8701 -0.625902ZM21.1087 -1.89831C23.6076 -1.65725 26.6951 -0.206179 28.0611 3.02187L17.0098 7.69838C17.4153 8.65671 18.0494 9.23345 18.5287 9.54101C19.0187 9.85545 19.5121 10.0034 19.9564 10.0462L21.1087 -1.89831ZM28.0887 3.08833C28.2388 3.4552 28.4522 4.03775 28.5632 4.85666C28.6337 5.37673 28.649 5.905 28.6572 6.30506C28.675 7.18305 28.6707 8.75761 28.6637 11.6281L16.6638 11.5989C16.671 8.62783 16.6739 7.24993 16.6596 6.54874C16.6517 6.15922 16.6412 6.24121 16.672 6.46885C16.6948 6.63692 16.7389 6.88379 16.8243 7.17557C16.9047 7.45015 16.9926 7.65756 16.9822 7.63192L28.0887 3.08833ZM28.6637 11.6352L28.6423 17.5401L16.6424 17.4967L16.6638 11.5918L28.6637 11.6352ZM27.7833 20.612L27.6194 20.8844L17.3374 14.6973L17.5014 14.4248L27.7833 20.612ZM27.6311 20.8649C26.7544 22.3345 25.4185 23.5419 23.7799 24.2467L19.0386 13.2231C18.2839 13.5477 17.7035 14.0835 17.3257 14.7168L27.6311 20.8649ZM23.8102 24.2335L23.404 24.4109L18.602 13.4136L19.0083 13.2362L23.8102 24.2335ZM21.0272 24.9122L16.3229 24.9312L16.2745 12.9313L20.9787 12.9123L21.0272 24.9122ZM16.3229 24.9312L11.6187 24.9502L11.5702 12.9503L16.2745 12.9313L16.3229 24.9312ZM7.59217 14.4801L8.57579 13.5995L16.5803 22.5397L15.5967 23.4204L7.59217 14.4801ZM8.57494 13.6002C8.81271 13.3873 8.94332 13.2689 9.02335 13.1939C9.129 13.095 9.02011 13.1884 8.85768 13.3782C8.68419 13.581 8.20702 14.1675 7.88045 15.0853C7.53926 16.0442 7.55453 16.8527 7.55453 16.9355H19.5545C19.5545 17.1387 19.5645 18.0447 19.1861 19.1081C18.8223 20.1304 18.2761 20.8286 17.9752 21.1802C17.5218 21.71 16.8946 22.2582 16.5811 22.539L8.57494 13.6002ZM7.55453 16.9355C7.55453 21.2731 11.8331 22.9875 14.6692 21.9123L10.4156 10.6915C14.221 9.24895 19.5545 11.6222 19.5545 16.9355H7.55453ZM14.9792 21.7848C15.1886 21.6918 15.3504 21.6051 15.4449 21.5525C15.5466 21.496 15.6281 21.4466 15.6831 21.4123C15.7902 21.3455 15.8682 21.2917 15.9031 21.2673C15.9737 21.2179 16.0096 21.1894 15.9927 21.2025C15.9658 21.2232 15.8867 21.286 15.7496 21.4C15.4837 21.6212 15.1104 21.9427 14.6998 22.3105L6.69283 13.3725C7.19455 12.9231 7.68021 12.5033 8.07715 12.1732C8.27149 12.0116 8.4748 11.8463 8.66353 11.7007C8.75441 11.6307 8.88143 11.5345 9.02424 11.4346C9.03122 11.4297 9.49345 11.0911 10.1056 10.8191L14.9792 21.7848ZM14.7012 22.3093C14.2755 22.6909 14.0048 22.9366 13.8219 23.1093C13.6023 23.3167 13.6759 23.2643 13.8285 23.0771C13.9087 22.9787 14.713 22.0327 14.9407 20.4699C15.2151 18.5866 14.4727 17.2207 14.2935 16.902L3.83462 22.7852C3.56275 22.3018 2.76693 20.7926 3.06608 18.7396C3.31853 17.0071 4.22573 15.8651 4.52597 15.4966C5.11978 14.7679 6.02968 13.967 6.69145 13.3737L14.7012 22.3093ZM14.1959 16.7349C14.1045 16.584 14.0224 16.4636 13.9649 16.3824C13.9053 16.2981 13.8526 16.2285 13.8126 16.1768C13.7346 16.0763 13.6693 15.9988 13.6306 15.9539C13.5541 15.865 13.4951 15.8023 13.4755 15.7816C13.4324 15.736 13.413 15.7176 13.4383 15.7426C13.4814 15.785 13.5707 15.8708 13.7115 16.0028C13.9862 16.2601 14.373 16.6143 14.7997 16.9967L6.79248 25.9345C6.31403 25.5058 5.85978 25.0903 5.50717 24.76C5.3344 24.5981 5.16353 24.4356 5.01859 24.2929C4.94994 24.2253 4.85455 24.1302 4.75586 24.0258C4.70851 23.9757 4.62678 23.8881 4.53301 23.7791C4.50798 23.75 4.21461 23.4185 3.93223 22.9523L14.1959 16.7349ZM14.7823 16.9811C15.2354 17.3839 15.5171 17.6323 15.7164 17.8008C15.9546 18.0022 15.8781 17.9195 15.6515 17.7767C15.4006 17.6188 14.5295 17.1017 13.2311 17.0129C12.5941 16.9693 12.0534 17.0429 11.6575 17.1319C11.3093 17.2101 11.0608 17.305 11.0558 17.3069L15.2122 28.564C15.0123 28.6379 13.8823 29.0854 12.4125 28.9849C10.9085 28.8821 9.81337 28.2814 9.25692 27.931C8.41788 27.4027 7.47335 26.5397 6.80993 25.95L14.7823 16.9811ZM11.0501 17.309C8.53281 18.2413 7.55453 20.5504 7.55453 22.2639H19.5545C19.5545 24.6109 18.2484 27.4395 15.2179 28.5619L11.0501 17.309ZM7.55453 22.2639C7.55453 22.573 7.57776 23.3959 7.96569 24.3566C8.30381 25.194 8.75333 25.7218 8.89028 25.8783C9.03132 26.0395 9.1189 26.114 9.01539 26.0173C8.93366 25.9409 8.80357 25.823 8.57441 25.6177L16.5817 16.6799C16.902 16.9668 17.4894 17.4828 17.9212 17.9763C18.1891 18.2824 18.713 18.9231 19.0928 19.8636C19.5224 20.9275 19.5545 21.8438 19.5545 22.2639H7.55453ZM8.57568 25.6188L7.59918 24.7445L15.6039 15.8044L16.5804 16.6788L8.57568 25.6188ZM11.6015 14.2744H16.2702V26.2744H11.6015V14.2744ZM16.2702 14.2744C18.2402 14.2744 19.3632 14.2711 20.0346 14.2588C20.3743 14.2526 20.5128 14.2454 20.5476 14.243C20.6017 14.2393 20.3333 14.2516 19.9408 14.3461L22.7494 26.0128C21.8173 26.2371 20.826 26.2464 20.2536 26.2568C19.4496 26.2715 18.2061 26.2744 16.2702 26.2744V14.2744ZM19.9886 14.3348C19.5541 14.4356 18.7728 14.8289 18.3933 15.9086L29.714 19.8885C28.5504 23.1984 25.702 25.3277 22.7016 26.0241L19.9886 14.3348ZM18.3968 15.8985L18.5536 15.455L29.8673 19.4551L29.7105 19.8986L18.3968 15.8985ZM18.2104 17.455V11.5311H30.2104V17.455H18.2104ZM18.2104 11.5311C18.2104 9.91236 18.2113 8.74802 18.2063 7.87819C18.2012 6.98239 18.1899 6.5284 18.1758 6.28286C18.1601 6.0096 18.155 6.34583 18.3146 6.86339C18.4781 7.39317 18.7778 7.89669 18.5402 7.45968L29.0824 1.72731C29.2135 1.96834 28.9953 1.56657 29.1536 1.85731C29.1891 1.92242 29.2496 2.03459 29.3165 2.16869C29.4653 2.4671 29.6354 2.85261 29.7815 3.32624C30.0547 4.21207 30.1236 5.0306 30.156 5.59366C30.2171 6.65493 30.2104 8.46154 30.2104 11.5311H18.2104ZM18.5513 7.48008C18.8406 8.00732 19.2055 8.30893 19.4723 8.46809C19.7437 8.62999 20.0286 8.7164 20.3201 8.73612L21.1299 -3.23652C24.1986 -3.02898 27.3875 -1.36133 29.0713 1.70691L18.5513 7.48008ZM20.3515 8.73816C20.1916 8.72819 20.5052 8.76085 20.9616 8.70884C21.2412 8.67697 21.579 8.61465 21.9503 8.4975C22.321 8.38052 22.6153 8.24337 22.8165 8.13766L17.2364 -2.48601C18.9557 -3.38906 20.5402 -3.27339 21.0985 -3.23856L20.3515 8.73816Z" fill="white" mask="url(#path-2-inside-1_138_574)"/>
</g>
<defs>
<clipPath id="clip0_138_574">
<rect width="25.875" height="23" fill="white"/>
</clipPath>
</defs>
</svg>
