<svg width="32" height="32" viewBox="0 0 32 32" fill="none" xmlns="http://www.w3.org/2000/svg">
<path d="M2.66663 14.7333C2.66663 13.575 2.98893 13.3333 4.53329 13.3333H27.4666C29.011 13.3333 29.3333 13.575 29.3333 14.7333V15.9333C29.3333 17.0916 29.011 17.3333 27.4666 17.3333H4.53329C2.98893 17.3333 2.66663 17.0916 2.66663 15.9333V14.7333Z" fill="#C2C0C0"/>
<path d="M2.66663 4.06667C2.66663 2.9084 2.98893 2.66667 4.53329 2.66667H27.4666C29.011 2.66667 29.3333 2.9084 29.3333 4.06667V5.26667C29.3333 6.42494 29.011 6.66667 27.4666 6.66667H4.53329C2.98893 6.66667 2.66663 6.42494 2.66663 5.26667V4.06667Z" fill="#C2C0C0"/>
<path d="M2.66663 25.4C2.66663 24.2417 2.98893 24 4.53329 24H27.4666C29.011 24 29.3333 24.2417 29.3333 25.4V26.6C29.3333 27.7583 29.011 28 27.4666 28H4.53329C2.98893 28 2.66663 27.7583 2.66663 26.6V25.4Z" fill="#C2C0C0"/>
</svg>
