<svg width="30" height="30" viewBox="0 0 30 30" fill="none" xmlns="http://www.w3.org/2000/svg">
<g clip-path="url(#clip0_138_452)">
<path d="M13.1226 1.67838C12.2435 2.3455 11.3483 3.48977 10.5732 5.1C11.383 5.22357 12.3711 5.33998 13.1211 5.40099V3.28125C13.1211 2.95123 13.1216 2.65639 13.122 2.39239C13.1224 2.12407 13.1228 1.88759 13.1226 1.67838ZM13.0907 0.500844C13.0883 0.488225 13.088 0.492771 13.0923 0.509821C13.0919 0.507648 13.0916 0.505581 13.0912 0.503619C13.091 0.502616 13.0909 0.501691 13.0907 0.500844Z" stroke="#1F2F98" stroke-width="2"/>
<path d="M16.8789 5.40119C17.6272 5.34027 18.6157 5.2238 19.4261 5.10013C18.6419 3.47709 17.7503 2.33868 16.8773 1.67985C16.877 1.88695 16.8774 2.1208 16.8779 2.38588C16.8784 2.65146 16.8789 2.94841 16.8789 3.28125V5.40119Z" stroke="#1F2F98" stroke-width="2"/>
<path d="M6.59037 3.78671C6.50456 3.85143 6.41795 3.91817 6.3322 3.9855C6.51552 4.05434 6.69656 4.12027 6.86296 4.17871C6.98506 3.8913 7.12018 3.5982 7.26505 3.3054C7.03926 3.45678 6.81574 3.61643 6.59111 3.78615L6.59037 3.78671Z" stroke="#1F2F98" stroke-width="2"/>
<path d="M23.1372 4.18276C23.3037 4.12416 23.4853 4.05781 23.6693 3.98838C23.5821 3.91952 23.494 3.85103 23.4066 3.78439C23.1881 3.61884 22.9633 3.45908 22.7336 3.30584C22.8811 3.6031 23.0171 3.8981 23.1372 4.18276Z" stroke="#1F2F98" stroke-width="2"/>
<path d="M3.56112 6.89978C2.43398 8.48359 1.69211 10.1763 1.27712 12.1077C1.23406 12.314 1.16875 12.7131 1.11044 13.1174C1.52339 13.1205 2.10297 13.1211 2.91797 13.1211H4.89138C4.98576 11.3998 5.28767 9.34358 5.67982 7.76309L5.67979 7.76308L5.68165 7.75582C5.68221 7.75365 5.68276 7.75149 5.68331 7.74932C4.9494 7.50125 4.27298 7.23012 3.56112 6.89978Z" stroke="#1F2F98" stroke-width="2"/>
<path d="M28.7231 12.1203C28.3096 10.1781 27.5713 8.49478 26.443 6.90216C25.8255 7.18952 25.0372 7.5042 24.3161 7.74947L24.314 7.75018C24.3132 7.75045 24.3124 7.75072 24.3117 7.75098C24.3146 7.76338 24.3176 7.77584 24.3206 7.78836C24.7073 9.32506 25.014 11.4007 25.1086 13.1211H27.082C27.8741 13.1211 28.4601 13.119 28.8876 13.114C28.8292 12.7038 28.7651 12.3121 28.7244 12.1265L28.7244 12.1265L28.7231 12.1203ZM29.776 13.0855C29.7759 13.0854 29.7738 13.0857 29.77 13.0863C29.7742 13.0858 29.7761 13.0855 29.776 13.0855Z" stroke="#1F2F98" stroke-width="2"/>
<path d="M9.78657 8.76593C9.62812 8.73787 9.47138 8.71034 9.32599 8.68503C8.98502 10.0882 8.74697 11.6626 8.65486 13.1211H10.8633H13.1211V11.168V9.15982C11.9809 9.08212 10.7888 8.94047 9.78936 8.76642L9.78936 8.76643L9.78657 8.76593Z" stroke="#1F2F98" stroke-width="2"/>
<path d="M21.3449 13.1211C21.2518 11.6731 21.0088 10.0455 20.679 8.69296C20.5327 8.71824 20.3712 8.74554 20.2035 8.77351L20.201 8.77391C19.1082 8.95324 17.9788 9.08572 16.8789 9.16166V11.168V13.1211H19.1367H21.3449Z" stroke="#1F2F98" stroke-width="2"/>
<path d="M3.56107 23.1002C4.27295 22.7699 4.94938 22.4988 5.68331 22.2507C5.68276 22.2485 5.68221 22.2464 5.68165 22.2442L5.68163 22.2442L5.67982 22.2369C5.28807 20.658 4.98639 18.6044 4.89168 16.8789H2.91797C2.10297 16.8789 1.52339 16.8795 1.11044 16.8826C1.16876 17.2869 1.23406 17.686 1.27712 17.8923C1.69242 19.8252 2.43479 21.5233 3.56107 23.1002Z" stroke="#1F2F98" stroke-width="2"/>
<path d="M13.1211 18.832V16.8789H10.8633H8.65517C8.7475 18.3409 8.9854 19.9134 9.32599 21.315C9.47138 21.2897 9.62812 21.2621 9.78657 21.2341L9.78657 21.2341L9.78936 21.2336C10.7888 21.0595 11.9809 20.9179 13.1211 20.8402V18.832Z" stroke="#1F2F98" stroke-width="2"/>
<path d="M20.6797 21.3097C21.009 19.953 21.2515 18.3332 21.3446 16.8789H19.1367H16.8789V18.832V20.8395C18.1068 20.9209 19.1854 21.0557 20.6797 21.3097Z" stroke="#1F2F98" stroke-width="2"/>
<path d="M24.3195 22.2219L24.3195 22.2219L24.3183 22.2269C24.3171 22.2314 24.3159 22.236 24.3148 22.2405C24.9761 22.4712 25.8739 22.8343 26.44 23.0987C27.5668 21.5149 28.3084 19.8222 28.7232 17.8791L28.7232 17.8791L28.7244 17.8735C28.7652 17.6879 28.8292 17.2962 28.8876 16.886C28.4601 16.881 27.8741 16.8789 27.082 16.8789H25.1083C25.0133 18.6057 24.7062 20.6813 24.3195 22.2219ZM29.776 16.9145C29.7761 16.9145 29.7742 16.9142 29.77 16.9137C29.7738 16.9143 29.7759 16.9146 29.776 16.9145Z" stroke="#1F2F98" stroke-width="2"/>
<path d="M16.4648 29.7187C16.2551 29.8075 16.1197 29.9031 16.0325 29.8703C15.9244 29.8297 15.8904 29.5918 15.8807 28.8993C15.8977 28.895 15.9167 28.891 15.9371 28.8877C15.9855 28.8797 16.0433 28.8755 16.1069 28.8783L16.4648 29.7187ZM16.4648 29.7187C17.9508 29.0858 19.354 27.4449 20.4464 25.0825L16.109 28.8784L16.4648 29.7187ZM19.4284 24.8965C18.6633 24.7785 17.7363 24.6728 16.8789 24.609V26.7129C16.8789 27.0489 16.8784 27.3485 16.8779 27.6162C16.8774 27.8816 16.877 28.1157 16.8772 28.323C17.7532 27.6614 18.6471 26.5179 19.4284 24.8965Z" stroke="#1F2F98" stroke-width="2"/>
<path d="M10.5763 24.9009C11.3543 26.5316 12.2152 27.6408 13.1185 28.3136C13.1204 27.9024 13.1211 27.3806 13.1211 26.7188V24.6024C12.5956 24.6417 11.8004 24.7322 11.0694 24.8313C10.8981 24.8545 10.7323 24.8779 10.5763 24.9009Z" stroke="#1F2F98" stroke-width="2"/>
<path d="M6.86229 25.8159C6.6891 25.877 6.50651 25.9443 6.32559 26.0133C6.40903 26.0797 6.49149 26.1441 6.57067 26.2044L6.57112 26.2047C6.80805 26.3854 7.0394 26.5519 7.27358 26.7087C7.12725 26.4129 6.98938 26.1139 6.86229 25.8159Z" stroke="#1F2F98" stroke-width="2"/>
<path d="M23.6708 26.0122C23.4865 25.9411 23.3041 25.8726 23.1365 25.8117C22.9828 26.1754 22.8733 26.4208 22.7397 26.6917C22.966 26.5404 23.1882 26.3818 23.4061 26.216L23.406 26.216L23.4096 26.2133C23.4965 26.1478 23.5841 26.0803 23.6708 26.0122ZM22.4902 25.5965C22.4807 25.5943 22.4828 25.5953 22.494 25.5974C22.4923 25.597 22.4911 25.5967 22.4902 25.5965ZM22.5976 26.9724C22.3444 27.4635 22.059 27.9553 21.7593 28.4183C22.5475 28.0214 23.3012 27.5526 24.0117 27.0117L22.5976 26.9724Z" stroke="#1F2F98" stroke-width="2"/>
</g>
<defs>
<clipPath id="clip0_138_452">
<rect width="30" height="30" fill="white"/>
</clipPath>
</defs>
</svg>
