<?xml version="1.0" standalone="no"?>
<!DOCTYPE svg PUBLIC "-//W3C//DTD SVG 20010904//EN"
 "http://www.w3.org/TR/2001/REC-SVG-20010904/DTD/svg10.dtd">
<svg version="1.0" xmlns="http://www.w3.org/2000/svg"
 width="96.000000pt" height="96.000000pt" viewBox="0 0 96.000000 96.000000"
 preserveAspectRatio="xMidYMid meet">

<g transform="translate(0.000000,96.000000) scale(0.100000,-0.100000)"
fill="#fff" stroke="none">
<path d="M813 844 c-3 -9 7 -28 28 -50 l33 -34 -76 0 c-128 0 -169 -22 -260
-143 -33 -45 -64 -86 -68 -90 -4 -5 -49 46 -100 112 l-92 122 -137 -3 c-128
-3 -136 -4 -136 -23 0 -19 8 -20 127 -23 l127 -3 79 -102 c43 -56 82 -108 86
-115 5 -8 -23 -53 -80 -127 l-87 -115 -124 0 c-104 0 -125 -3 -130 -16 -3 -9
0 -20 8 -25 17 -10 249 -12 265 -1 6 4 50 58 98 120 49 63 92 110 96 105 4 -4
37 -48 75 -96 84 -109 114 -126 236 -134 l90 -6 -31 -31 c-33 -35 -37 -51 -17
-59 12 -5 137 107 137 122 0 4 -27 33 -59 65 -40 40 -65 57 -75 53 -26 -10
-18 -33 22 -66 l37 -30 -83 -1 c-125 0 -149 15 -260 163 l-51 69 76 98 c90
118 110 130 224 130 l83 0 -33 -34 c-33 -34 -37 -66 -9 -66 16 0 128 111 128
127 0 13 -118 123 -132 123 -5 0 -11 -7 -15 -16z"/>
</g>
</svg>
