<svg width="32" height="32" viewBox="0 0 32 32" fill="none" xmlns="http://www.w3.org/2000/svg">
<path d="M18.6368 4.92557L20.9832 9.65717C21.3032 10.3158 22.1564 10.9476 22.8764 11.0686L27.1292 11.781C29.8489 12.238 30.4889 14.2275 28.5291 16.19L25.2228 19.5236C24.6628 20.0881 24.3563 21.1769 24.5295 21.9567L25.4761 26.0833C26.2227 29.3497 24.5028 30.6133 21.6365 28.9061L17.6503 26.5269C16.9304 26.0968 15.7439 26.0968 15.0105 26.5269L11.0244 28.9061C8.17133 30.6133 6.4382 29.3363 7.18479 26.0833L8.13135 21.9567C8.30465 21.1769 7.99803 20.0881 7.43808 19.5236L4.13179 16.19C2.18533 14.2275 2.81193 12.238 5.53163 11.781L9.78449 11.0686C10.4911 10.9476 11.3443 10.3158 11.6643 9.65717L14.0107 4.92557C15.2905 2.35814 17.3703 2.35814 18.6368 4.92557Z" stroke="#2C2C2C" stroke-width="2" stroke-linecap="round" stroke-linejoin="round"/>
</svg>
