<svg width="36" height="36" viewBox="0 0 36 36" fill="none" xmlns="http://www.w3.org/2000/svg">
<path d="M21 22.2202V13.7797C21 9.06189 21 6.70299 19.6121 6.11595C18.2241 5.52889 16.5905 7.19689 13.3235 10.5329C11.6316 12.2605 10.6663 12.643 8.25907 12.643C6.15386 12.643 5.10126 12.643 4.34513 13.1589C2.77553 14.2298 3.01278 16.323 3.01278 18C3.01278 19.677 2.77553 21.7701 4.34513 22.8411C5.10126 23.3569 6.15386 23.3569 8.25907 23.3569C10.6663 23.3569 11.6316 23.7396 13.3235 25.4671C16.5905 28.8031 18.2241 30.4711 19.6121 29.884C21 29.2969 21 26.938 21 22.2202Z" stroke="white" stroke-width="1.5" stroke-linecap="round" stroke-linejoin="round"/>
<path d="M25.5 13.5C26.4381 14.7295 27 16.2951 27 18C27 19.7049 26.4381 21.2704 25.5 22.5" stroke="white" stroke-width="1.5" stroke-linecap="round" stroke-linejoin="round"/>
<path d="M30 10.5C31.8762 12.5492 33 15.1586 33 18C33 20.8414 31.8762 23.4509 30 25.5" stroke="white" stroke-width="1.5" stroke-linecap="round" stroke-linejoin="round"/>
</svg>
