<svg width="185" height="35" viewBox="0 0 185 35" fill="none" xmlns="http://www.w3.org/2000/svg">
<path d="M64.0869 15.6113C64.0869 17.5703 63.7272 19.3024 63.0078 20.8076C62.2884 22.3018 61.2591 23.5524 59.9199 24.5596C58.5807 25.5667 56.9537 26.3304 55.039 26.8506C53.1354 27.3597 50.9938 27.6143 48.6142 27.6143C46.2346 27.6143 44.082 27.3597 42.1562 26.8506C40.2415 26.3304 38.609 25.5667 37.2587 24.5596C35.9085 23.5524 34.8681 22.3018 34.1376 20.8076C33.4072 19.3024 33.0419 17.5703 33.0419 15.6113C33.0419 13.6523 33.4072 11.9258 34.1376 10.4316C34.8681 8.92643 35.9085 7.67025 37.2587 6.66309C38.609 5.65592 40.2415 4.89779 42.1562 4.38867C44.082 3.86849 46.2346 3.6084 48.6142 3.6084C50.9938 3.6084 53.1354 3.86849 55.039 4.38867C56.9537 4.89779 58.5807 5.65592 59.9199 6.66309C61.2591 7.67025 62.2884 8.92643 63.0078 10.4316C63.7272 11.9258 64.0869 13.6523 64.0869 15.6113ZM57.8613 15.6113C57.8613 14.7591 57.7229 13.9124 57.4462 13.0713C57.1806 12.2191 56.6992 11.4554 56.0019 10.7803C55.3157 10.1051 54.3749 9.55729 53.1796 9.13672C51.9843 8.71615 50.4625 8.50586 48.6142 8.50586C47.3746 8.50586 46.2844 8.60547 45.3437 8.80469C44.4029 8.99284 43.5895 9.25846 42.9033 9.60156C42.2171 9.94466 41.6415 10.3486 41.1767 10.8135C40.7119 11.2673 40.3411 11.7598 40.0644 12.291C39.7877 12.8112 39.5885 13.359 39.4667 13.9346C39.3561 14.499 39.3007 15.0579 39.3007 15.6113C39.3007 16.1758 39.3561 16.7458 39.4667 17.3213C39.5885 17.8968 39.7877 18.4502 40.0644 18.9814C40.3411 19.5016 40.7119 19.9886 41.1767 20.4424C41.6415 20.8962 42.2171 21.2946 42.9033 21.6377C43.5895 21.9697 44.4029 22.2354 45.3437 22.4346C46.2844 22.6227 47.3746 22.7168 48.6142 22.7168C50.4625 22.7168 51.9843 22.5065 53.1796 22.0859C54.3749 21.6654 55.3157 21.1175 56.0019 20.4424C56.6992 19.7673 57.1806 19.0091 57.4462 18.168C57.7229 17.3158 57.8613 16.4635 57.8613 15.6113Z" fill="#1F2F98"/>
<path d="M69.659 17.2383V27H67.5838V4.18945H78.9393C80.6769 4.18945 82.1655 4.3278 83.4051 4.60449C84.6447 4.87012 85.6574 5.27962 86.4432 5.83301C87.2401 6.37533 87.8211 7.05599 88.1863 7.875C88.5516 8.69401 88.7342 9.65137 88.7342 10.7471C88.7342 12.4515 88.286 13.8184 87.3895 14.8477C86.493 15.8659 85.0486 16.5632 83.0565 16.9395L90.8426 27H88.2361L80.8817 17.1719C80.5718 17.194 80.2563 17.2106 79.9354 17.2217C79.6144 17.2327 79.2824 17.2383 78.9393 17.2383H69.659ZM86.5926 10.7471C86.5926 9.77311 86.421 8.9873 86.0779 8.38965C85.7348 7.78092 85.1759 7.31055 84.4012 6.97852C83.6264 6.64648 82.6082 6.42513 81.3465 6.31445C80.0958 6.19271 78.5574 6.13184 76.7313 6.13184H69.659V15.2959H76.6649C78.491 15.2959 80.035 15.2461 81.2967 15.1465C82.5584 15.0358 83.5822 14.82 84.368 14.499C85.1538 14.167 85.7182 13.7077 86.0613 13.1211C86.4155 12.5234 86.5926 11.7321 86.5926 10.7471ZM93.5261 27V4.18945H112.535V6.13184H95.7839V13.9844H111.688V15.9102H95.7839V25.0576H112.784V27H93.5261ZM145.815 27V7.59277L133.281 27H131.438L118.887 7.50977V27H116.812V4.18945H119.037L132.418 24.8584L145.649 4.18945H147.857V27H145.815ZM153.18 27V4.18945H155.255V27H153.18ZM170.705 16.6904L160.877 27H158.254L169.41 15.2959L158.802 4.18945H161.425L170.705 13.9512L180.019 4.18945H182.642L172.034 15.2959L183.173 27H180.567L170.705 16.6904Z" fill="url(#paint0_linear_138_578)"/>
<path d="M13.2608 18.619C13.8892 18.619 14.2032 18.619 14.4832 18.7062C15.2967 18.9597 15.6122 19.6278 15.9429 20.2971C16.3146 21.0495 16.5003 21.4257 16.533 21.7985C16.5701 22.2217 16.4712 22.6456 16.2511 23.0073C15.9594 23.4869 15.4049 23.8213 14.9539 24.1637C12.8713 25.7451 11.8298 26.5356 10.6815 26.8249C9.75489 27.0584 8.78576 27.0584 7.85916 26.8249C6.18425 26.403 4.78017 25.0699 3.4806 24.0831C2.81591 23.5784 2.48347 23.326 2.28953 23.0073C2.06943 22.6456 1.97055 22.2217 2.00763 21.7985C2.04034 21.4257 2.2261 21.0495 2.5978 20.2971C2.92841 19.6278 3.24395 18.9597 4.0575 18.7062C4.33741 18.619 4.65149 18.619 5.27982 18.619H13.2608Z" fill="#1F2F98" stroke="#1F2F98" stroke-width="3"/>
<path d="M13.2608 13.381C14.0518 13.381 14.7628 13.3605 15.319 12.7707C15.5213 12.5561 15.6618 12.2717 15.9427 11.7029C16.3142 10.9505 16.5 10.5743 16.5327 10.2015C16.6309 9.08305 15.8032 8.48131 14.9537 7.83633C12.8712 6.25505 11.8299 5.46441 10.6816 5.17509C9.75488 4.94164 8.78579 4.94164 7.85922 5.17509C6.1844 5.59706 4.78056 6.93017 3.48086 7.91692C2.66171 8.53892 1.91436 9.1331 2.00796 10.2015C2.04067 10.5743 2.2266 10.9505 2.5981 11.7029C2.87908 12.2717 3.01958 12.5561 3.22187 12.7707C3.77802 13.3605 4.48885 13.381 5.28001 13.381H13.2608Z" fill="#1F2F98" stroke="#1F2F98" stroke-width="3"/>
<path d="M13.1171 27H16.6177C23.3842 27 28.8695 22.0751 28.8695 16C28.8695 9.92487 23.3842 5 16.6177 5H13.1171" stroke="#1F2F98" stroke-width="6" stroke-linecap="square" stroke-linejoin="round"/>
<defs>
<linearGradient id="paint0_linear_138_578" x1="108" y1="-1.18017e-06" x2="108" y2="27" gradientUnits="userSpaceOnUse">
<stop stop-color="#2C2C2C"/>
<stop offset="0.998098" stop-color="#1B1B1B" stop-opacity="0.26"/>
</linearGradient>
</defs>
</svg>
