<svg width="87" height="35" viewBox="0 0 87 35" fill="none" xmlns="http://www.w3.org/2000/svg">
<path d="M59.0869 15.6113C59.0869 17.5703 58.7272 19.3024 58.0078 20.8076C57.2884 22.3018 56.2591 23.5524 54.9199 24.5596C53.5807 25.5667 51.9538 26.3304 50.0391 26.8506C48.1354 27.3597 45.9938 27.6143 43.6143 27.6143C41.2347 27.6143 39.082 27.3597 37.1562 26.8506C35.2415 26.3304 33.609 25.5667 32.2588 24.5596C30.9085 23.5524 29.8682 22.3018 29.1377 20.8076C28.4072 19.3024 28.042 17.5703 28.042 15.6113C28.042 13.6523 28.4072 11.9258 29.1377 10.4316C29.8682 8.92643 30.9085 7.67025 32.2588 6.66309C33.609 5.65592 35.2415 4.89779 37.1562 4.38867C39.082 3.86849 41.2347 3.6084 43.6143 3.6084C45.9938 3.6084 48.1354 3.86849 50.0391 4.38867C51.9538 4.89779 53.5807 5.65592 54.9199 6.66309C56.2591 7.67025 57.2884 8.92643 58.0078 10.4316C58.7272 11.9258 59.0869 13.6523 59.0869 15.6113ZM52.8613 15.6113C52.8613 14.7591 52.723 13.9124 52.4463 13.0713C52.1807 12.2191 51.6992 11.4554 51.002 10.7803C50.3158 10.1051 49.375 9.55729 48.1797 9.13672C46.9844 8.71615 45.4626 8.50586 43.6143 8.50586C42.3747 8.50586 41.2845 8.60547 40.3438 8.80469C39.403 8.99284 38.5895 9.25846 37.9033 9.60156C37.2171 9.94466 36.6416 10.3486 36.1768 10.8135C35.7119 11.2673 35.3411 11.7598 35.0645 12.291C34.7878 12.8112 34.5885 13.359 34.4668 13.9346C34.3561 14.499 34.3008 15.0579 34.3008 15.6113C34.3008 16.1758 34.3561 16.7458 34.4668 17.3213C34.5885 17.8968 34.7878 18.4502 35.0645 18.9814C35.3411 19.5016 35.7119 19.9886 36.1768 20.4424C36.6416 20.8962 37.2171 21.2946 37.9033 21.6377C38.5895 21.9697 39.403 22.2354 40.3438 22.4346C41.2845 22.6227 42.3747 22.7168 43.6143 22.7168C45.4626 22.7168 46.9844 22.5065 48.1797 22.0859C49.375 21.6654 50.3158 21.1175 51.002 20.4424C51.6992 19.7673 52.1807 19.0091 52.4463 18.168C52.723 17.3158 52.8613 16.4635 52.8613 15.6113Z" fill="#1F2F98"/>
<path d="M72.7274 16.6904L62.8993 27H60.2762L71.4325 15.2959L60.8241 4.18945H63.4471L72.7274 13.9512L82.0409 4.18945H84.6639L74.0555 15.2959L85.1952 27H82.5887L72.7274 16.6904Z" fill="#2C2C2C"/>
<path d="M11.2933 18C11.8118 18 12.071 18 12.302 18.0832C12.9734 18.3251 13.2338 18.9629 13.5067 19.6018C13.8134 20.32 13.9667 20.6791 13.9937 21.0349C14.0243 21.4389 13.9427 21.8435 13.7611 22.1888C13.5203 22.6466 13.0627 22.9658 12.6905 23.2927C10.9718 24.8021 10.1123 25.5567 9.1646 25.8328C8.3999 26.0557 7.6001 26.0557 6.8354 25.8328C5.45315 25.4301 4.29439 24.1576 3.22189 23.2157C2.67334 22.7339 2.39899 22.493 2.23894 22.1888C2.05729 21.8435 1.97569 21.4389 2.00629 21.0349C2.03329 20.6791 2.18659 20.32 2.49334 19.6018C2.76619 18.9629 3.02659 18.3251 3.69799 18.0832C3.92899 18 4.1882 18 4.70675 18H11.2933Z" fill="#1F2F98" stroke="#1F2F98" stroke-width="3"/>
<path d="M11.2933 13C11.946 13 12.5328 12.9804 12.9918 12.4175C13.1587 12.2127 13.2747 11.9412 13.5066 11.3983C13.8132 10.68 13.9664 10.3209 13.9934 9.96506C14.0744 8.89746 13.3914 8.32307 12.6903 7.70741C10.9717 6.198 10.1124 5.4433 9.1647 5.16714C8.39989 4.94429 7.60012 4.94429 6.83545 5.16714C5.45326 5.56992 4.29471 6.84243 3.22211 7.78434C2.54609 8.37806 1.92932 8.94523 2.00656 9.96506C2.03356 10.3209 2.187 10.68 2.49359 11.3983C2.72548 11.9412 2.84143 12.2127 3.00837 12.4175C3.46735 12.9804 4.05397 13 4.7069 13H11.2933Z" fill="#1F2F98" stroke="#1F2F98" stroke-width="3"/>
<path d="M12 26H14.8889C20.4731 26 25 21.299 25 15.5C25 9.70102 20.4731 5 14.8889 5H12" stroke="#1F2F98" stroke-width="6" stroke-linecap="square" stroke-linejoin="round"/>
</svg>
